<?xml version="1.0" encoding="UTF-8" standalone="no"?>
<svg
   xmlns:dc="http://purl.org/dc/elements/1.1/"
   xmlns:cc="http://creativecommons.org/ns#"
   xmlns:rdf="http://www.w3.org/1999/02/22-rdf-syntax-ns#"
   xmlns:svg="http://www.w3.org/2000/svg"
   xmlns="http://www.w3.org/2000/svg"
   xmlns:sodipodi="http://sodipodi.sourceforge.net/DTD/sodipodi-0.dtd"
   xmlns:inkscape="http://www.inkscape.org/namespaces/inkscape"
   sodipodi:docname="stroke_font_HUD.svg"
   inkscape:version="1.0 (4035a4fb49, 2020-05-01)"
   id="svg2"
   viewBox="0 0 21000 29700"
   style="clip-rule:evenodd;fill-rule:evenodd;image-rendering:optimizeQuality;shape-rendering:geometricPrecision;text-rendering:geometricPrecision"
   version="1.1"
   height="1052.3622"
   width="744.09448"
   xml:space="preserve"><metadata
     id="metadata1540"><rdf:RDF><cc:Work
         rdf:about=""><dc:format>image/svg+xml</dc:format><dc:type
           rdf:resource="http://purl.org/dc/dcmitype/StillImage" /><dc:title /></cc:Work></rdf:RDF></metadata><sodipodi:namedview
     inkscape:document-rotation="0"
     units="px"
     inkscape:document-units="px"
     inkscape:guide-bbox="true"
     showguides="true"
     inkscape:current-layer="svg2"
     inkscape:window-maximized="1"
     inkscape:window-y="-11"
     inkscape:window-x="-11"
     inkscape:cy="152.99621"
     inkscape:cx="-87.434711"
     inkscape:zoom="1.9999999"
     showgrid="true"
     id="namedview1538"
     inkscape:window-height="2066"
     inkscape:window-width="3840"
     inkscape:pageshadow="2"
     inkscape:pageopacity="0"
     guidetolerance="10"
     gridtolerance="10"
     objecttolerance="10"
     borderopacity="1"
     bordercolor="#666666"
     pagecolor="#ffffff"><inkscape:grid
       id="grid4370"
       type="xygrid" /><sodipodi:guide
       inkscape:locked="false"
       id="guide1212"
       orientation="1,0"
       position="0,29548.667" /><sodipodi:guide
       inkscape:locked="false"
       id="guide1214"
       orientation="0,1"
       position="0,29633.334" /><sodipodi:guide
       inkscape:locked="false"
       id="guide1216"
       orientation="1,0"
       position="338.66667,29700.362" /><sodipodi:guide
       inkscape:locked="false"
       id="guide1242"
       orientation="0,1"
       position="-141.11111,29068.889" /><sodipodi:guide
       inkscape:locked="false"
       id="guide1276"
       orientation="1,0"
       position="169.33334,29699.921" /><sodipodi:guide
       inkscape:locked="false"
       id="guide1404"
       orientation="0,1"
       position="0.00020032692,29404.734" /><sodipodi:guide
       inkscape:locked="false"
       id="guide1020"
       orientation="0,1"
       position="3104.4445,28645.556" /></sodipodi:namedview><defs
     id="defs4"><marker
       inkscape:isstock="true"
       style="overflow:visible"
       id="marker1965"
       refX="0.0"
       refY="0.0"
       orient="auto"
       inkscape:stockid="DotL"><path
         transform="scale(0.8) translate(7.4, 1)"
         style="fill-rule:evenodd;stroke:#000000;stroke-width:1pt;stroke-opacity:1;fill:#000000;fill-opacity:1"
         d="M -2.5,-1.0 C -2.5,1.7600000 -4.7400000,4.0 -7.5,4.0 C -10.260000,4.0 -12.5,1.7600000 -12.5,-1.0 C -12.5,-3.7600000 -10.260000,-6.0 -7.5,-6.0 C -4.7400000,-6.0 -2.5,-3.7600000 -2.5,-1.0 z "
         id="path1963" /></marker><marker
       inkscape:isstock="true"
       style="overflow:visible"
       id="marker1955"
       refX="0.0"
       refY="0.0"
       orient="auto"
       inkscape:stockid="DotL"><path
         transform="scale(0.8) translate(7.4, 1)"
         style="fill-rule:evenodd;stroke:#000000;stroke-width:1pt;stroke-opacity:1;fill:#000000;fill-opacity:1"
         d="M -2.5,-1.0 C -2.5,1.7600000 -4.7400000,4.0 -7.5,4.0 C -10.260000,4.0 -12.5,1.7600000 -12.5,-1.0 C -12.5,-3.7600000 -10.260000,-6.0 -7.5,-6.0 C -4.7400000,-6.0 -2.5,-3.7600000 -2.5,-1.0 z "
         id="path1953" /></marker><marker
       inkscape:isstock="true"
       style="overflow:visible"
       id="marker1945"
       refX="0.0"
       refY="0.0"
       orient="auto"
       inkscape:stockid="DotL"><path
         transform="scale(0.8) translate(7.4, 1)"
         style="fill-rule:evenodd;stroke:#000000;stroke-width:1pt;stroke-opacity:1;fill:#000000;fill-opacity:1"
         d="M -2.5,-1.0 C -2.5,1.7600000 -4.7400000,4.0 -7.5,4.0 C -10.260000,4.0 -12.5,1.7600000 -12.5,-1.0 C -12.5,-3.7600000 -10.260000,-6.0 -7.5,-6.0 C -4.7400000,-6.0 -2.5,-3.7600000 -2.5,-1.0 z "
         id="path1943" /></marker><marker
       inkscape:isstock="true"
       style="overflow:visible"
       id="marker1935"
       refX="0.0"
       refY="0.0"
       orient="auto"
       inkscape:stockid="DotL"><path
         transform="scale(0.8) translate(7.4, 1)"
         style="fill-rule:evenodd;stroke:#000000;stroke-width:1pt;stroke-opacity:1;fill:#000000;fill-opacity:1"
         d="M -2.5,-1.0 C -2.5,1.7600000 -4.7400000,4.0 -7.5,4.0 C -10.260000,4.0 -12.5,1.7600000 -12.5,-1.0 C -12.5,-3.7600000 -10.260000,-6.0 -7.5,-6.0 C -4.7400000,-6.0 -2.5,-3.7600000 -2.5,-1.0 z "
         id="path1933" /></marker><marker
       inkscape:isstock="true"
       style="overflow:visible"
       id="marker1925"
       refX="0.0"
       refY="0.0"
       orient="auto"
       inkscape:stockid="DotL"><path
         transform="scale(0.8) translate(7.4, 1)"
         style="fill-rule:evenodd;stroke:#000000;stroke-width:1pt;stroke-opacity:1;fill:#000000;fill-opacity:1"
         d="M -2.5,-1.0 C -2.5,1.7600000 -4.7400000,4.0 -7.5,4.0 C -10.260000,4.0 -12.5,1.7600000 -12.5,-1.0 C -12.5,-3.7600000 -10.260000,-6.0 -7.5,-6.0 C -4.7400000,-6.0 -2.5,-3.7600000 -2.5,-1.0 z "
         id="path1923" /></marker><marker
       inkscape:isstock="true"
       style="overflow:visible"
       id="marker1915"
       refX="0.0"
       refY="0.0"
       orient="auto"
       inkscape:stockid="DotL"><path
         transform="scale(0.8) translate(7.4, 1)"
         style="fill-rule:evenodd;stroke:#000000;stroke-width:1pt;stroke-opacity:1;fill:#000000;fill-opacity:1"
         d="M -2.5,-1.0 C -2.5,1.7600000 -4.7400000,4.0 -7.5,4.0 C -10.260000,4.0 -12.5,1.7600000 -12.5,-1.0 C -12.5,-3.7600000 -10.260000,-6.0 -7.5,-6.0 C -4.7400000,-6.0 -2.5,-3.7600000 -2.5,-1.0 z "
         id="path1913" /></marker><marker
       inkscape:isstock="true"
       style="overflow:visible"
       id="marker1905"
       refX="0.0"
       refY="0.0"
       orient="auto"
       inkscape:stockid="DotL"><path
         transform="scale(0.8) translate(7.4, 1)"
         style="fill-rule:evenodd;stroke:#000000;stroke-width:1pt;stroke-opacity:1;fill:#000000;fill-opacity:1"
         d="M -2.5,-1.0 C -2.5,1.7600000 -4.7400000,4.0 -7.5,4.0 C -10.260000,4.0 -12.5,1.7600000 -12.5,-1.0 C -12.5,-3.7600000 -10.260000,-6.0 -7.5,-6.0 C -4.7400000,-6.0 -2.5,-3.7600000 -2.5,-1.0 z "
         id="path1903" /></marker><marker
       inkscape:isstock="true"
       style="overflow:visible"
       id="marker1895"
       refX="0.0"
       refY="0.0"
       orient="auto"
       inkscape:stockid="DotL"><path
         transform="scale(0.8) translate(7.4, 1)"
         style="fill-rule:evenodd;stroke:#000000;stroke-width:1pt;stroke-opacity:1;fill:#000000;fill-opacity:1"
         d="M -2.5,-1.0 C -2.5,1.7600000 -4.7400000,4.0 -7.5,4.0 C -10.260000,4.0 -12.5,1.7600000 -12.5,-1.0 C -12.5,-3.7600000 -10.260000,-6.0 -7.5,-6.0 C -4.7400000,-6.0 -2.5,-3.7600000 -2.5,-1.0 z "
         id="path1893" /></marker><marker
       inkscape:isstock="true"
       style="overflow:visible"
       id="marker1885"
       refX="0.0"
       refY="0.0"
       orient="auto"
       inkscape:stockid="DotL"><path
         transform="scale(0.8) translate(7.4, 1)"
         style="fill-rule:evenodd;stroke:#000000;stroke-width:1pt;stroke-opacity:1;fill:#000000;fill-opacity:1"
         d="M -2.5,-1.0 C -2.5,1.7600000 -4.7400000,4.0 -7.5,4.0 C -10.260000,4.0 -12.5,1.7600000 -12.5,-1.0 C -12.5,-3.7600000 -10.260000,-6.0 -7.5,-6.0 C -4.7400000,-6.0 -2.5,-3.7600000 -2.5,-1.0 z "
         id="path1883" /></marker><marker
       inkscape:isstock="true"
       style="overflow:visible"
       id="marker1875"
       refX="0.0"
       refY="0.0"
       orient="auto"
       inkscape:stockid="DotL"><path
         transform="scale(0.8) translate(7.4, 1)"
         style="fill-rule:evenodd;stroke:#000000;stroke-width:1pt;stroke-opacity:1;fill:#000000;fill-opacity:1"
         d="M -2.5,-1.0 C -2.5,1.7600000 -4.7400000,4.0 -7.5,4.0 C -10.260000,4.0 -12.5,1.7600000 -12.5,-1.0 C -12.5,-3.7600000 -10.260000,-6.0 -7.5,-6.0 C -4.7400000,-6.0 -2.5,-3.7600000 -2.5,-1.0 z "
         id="path1873" /></marker><marker
       inkscape:isstock="true"
       style="overflow:visible"
       id="marker1865"
       refX="0.0"
       refY="0.0"
       orient="auto"
       inkscape:stockid="DotL"><path
         transform="scale(0.8) translate(7.4, 1)"
         style="fill-rule:evenodd;stroke:#000000;stroke-width:1pt;stroke-opacity:1;fill:#000000;fill-opacity:1"
         d="M -2.5,-1.0 C -2.5,1.7600000 -4.7400000,4.0 -7.5,4.0 C -10.260000,4.0 -12.5,1.7600000 -12.5,-1.0 C -12.5,-3.7600000 -10.260000,-6.0 -7.5,-6.0 C -4.7400000,-6.0 -2.5,-3.7600000 -2.5,-1.0 z "
         id="path1863" /></marker><marker
       inkscape:isstock="true"
       style="overflow:visible"
       id="marker1855"
       refX="0.0"
       refY="0.0"
       orient="auto"
       inkscape:stockid="DotL"><path
         transform="scale(0.8) translate(7.4, 1)"
         style="fill-rule:evenodd;stroke:#000000;stroke-width:1pt;stroke-opacity:1;fill:#000000;fill-opacity:1"
         d="M -2.5,-1.0 C -2.5,1.7600000 -4.7400000,4.0 -7.5,4.0 C -10.260000,4.0 -12.5,1.7600000 -12.5,-1.0 C -12.5,-3.7600000 -10.260000,-6.0 -7.5,-6.0 C -4.7400000,-6.0 -2.5,-3.7600000 -2.5,-1.0 z "
         id="path1853" /></marker><marker
       inkscape:isstock="true"
       style="overflow:visible"
       id="marker1845"
       refX="0.0"
       refY="0.0"
       orient="auto"
       inkscape:stockid="DotL"><path
         transform="scale(0.8) translate(7.4, 1)"
         style="fill-rule:evenodd;stroke:#000000;stroke-width:1pt;stroke-opacity:1;fill:#000000;fill-opacity:1"
         d="M -2.5,-1.0 C -2.5,1.7600000 -4.7400000,4.0 -7.5,4.0 C -10.260000,4.0 -12.5,1.7600000 -12.5,-1.0 C -12.5,-3.7600000 -10.260000,-6.0 -7.5,-6.0 C -4.7400000,-6.0 -2.5,-3.7600000 -2.5,-1.0 z "
         id="path1843" /></marker><marker
       inkscape:isstock="true"
       style="overflow:visible"
       id="marker1835"
       refX="0.0"
       refY="0.0"
       orient="auto"
       inkscape:stockid="DotL"><path
         transform="scale(0.8) translate(7.4, 1)"
         style="fill-rule:evenodd;stroke:#000000;stroke-width:1pt;stroke-opacity:1;fill:#000000;fill-opacity:1"
         d="M -2.5,-1.0 C -2.5,1.7600000 -4.7400000,4.0 -7.5,4.0 C -10.260000,4.0 -12.5,1.7600000 -12.5,-1.0 C -12.5,-3.7600000 -10.260000,-6.0 -7.5,-6.0 C -4.7400000,-6.0 -2.5,-3.7600000 -2.5,-1.0 z "
         id="path1833" /></marker><marker
       inkscape:stockid="DotL"
       orient="auto"
       refY="0.0"
       refX="0.0"
       id="marker1503"
       style="overflow:visible"
       inkscape:isstock="true"><path
         id="path1501"
         d="M -2.5,-1.0 C -2.5,1.7600000 -4.7400000,4.0 -7.5,4.0 C -10.260000,4.0 -12.5,1.7600000 -12.5,-1.0 C -12.5,-3.7600000 -10.260000,-6.0 -7.5,-6.0 C -4.7400000,-6.0 -2.5,-3.7600000 -2.5,-1.0 z "
         style="fill-rule:evenodd;stroke:#000000;stroke-width:1pt;stroke-opacity:1;fill:#000000;fill-opacity:1"
         transform="scale(0.8) translate(7.4, 1)" /></marker><marker
       inkscape:stockid="DotL"
       orient="auto"
       refY="0.0"
       refX="0.0"
       id="marker1493"
       style="overflow:visible"
       inkscape:isstock="true"><path
         id="path1491"
         d="M -2.5,-1.0 C -2.5,1.7600000 -4.7400000,4.0 -7.5,4.0 C -10.260000,4.0 -12.5,1.7600000 -12.5,-1.0 C -12.5,-3.7600000 -10.260000,-6.0 -7.5,-6.0 C -4.7400000,-6.0 -2.5,-3.7600000 -2.5,-1.0 z "
         style="fill-rule:evenodd;stroke:#000000;stroke-width:1pt;stroke-opacity:1;fill:#000000;fill-opacity:1"
         transform="scale(0.8) translate(7.4, 1)" /></marker><marker
       inkscape:stockid="DotL"
       orient="auto"
       refY="0.0"
       refX="0.0"
       id="marker1483"
       style="overflow:visible"
       inkscape:isstock="true"><path
         id="path1481"
         d="M -2.5,-1.0 C -2.5,1.7600000 -4.7400000,4.0 -7.5,4.0 C -10.260000,4.0 -12.5,1.7600000 -12.5,-1.0 C -12.5,-3.7600000 -10.260000,-6.0 -7.5,-6.0 C -4.7400000,-6.0 -2.5,-3.7600000 -2.5,-1.0 z "
         style="fill-rule:evenodd;stroke:#000000;stroke-width:1pt;stroke-opacity:1;fill:#000000;fill-opacity:1"
         transform="scale(0.8) translate(7.4, 1)" /></marker><marker
       inkscape:stockid="DotL"
       orient="auto"
       refY="0.0"
       refX="0.0"
       id="marker1473"
       style="overflow:visible"
       inkscape:isstock="true"><path
         id="path1471"
         d="M -2.5,-1.0 C -2.5,1.7600000 -4.7400000,4.0 -7.5,4.0 C -10.260000,4.0 -12.5,1.7600000 -12.5,-1.0 C -12.5,-3.7600000 -10.260000,-6.0 -7.5,-6.0 C -4.7400000,-6.0 -2.5,-3.7600000 -2.5,-1.0 z "
         style="fill-rule:evenodd;stroke:#000000;stroke-width:1pt;stroke-opacity:1;fill:#000000;fill-opacity:1"
         transform="scale(0.8) translate(7.4, 1)" /></marker><marker
       inkscape:stockid="DotL"
       orient="auto"
       refY="0.0"
       refX="0.0"
       id="marker1463"
       style="overflow:visible"
       inkscape:isstock="true"><path
         id="path1461"
         d="M -2.5,-1.0 C -2.5,1.7600000 -4.7400000,4.0 -7.5,4.0 C -10.260000,4.0 -12.5,1.7600000 -12.5,-1.0 C -12.5,-3.7600000 -10.260000,-6.0 -7.5,-6.0 C -4.7400000,-6.0 -2.5,-3.7600000 -2.5,-1.0 z "
         style="fill-rule:evenodd;stroke:#000000;stroke-width:1pt;stroke-opacity:1;fill:#000000;fill-opacity:1"
         transform="scale(0.8) translate(7.4, 1)" /></marker><marker
       inkscape:stockid="DotL"
       orient="auto"
       refY="0.0"
       refX="0.0"
       id="marker1453"
       style="overflow:visible"
       inkscape:isstock="true"><path
         id="path1451"
         d="M -2.5,-1.0 C -2.5,1.7600000 -4.7400000,4.0 -7.5,4.0 C -10.260000,4.0 -12.5,1.7600000 -12.5,-1.0 C -12.5,-3.7600000 -10.260000,-6.0 -7.5,-6.0 C -4.7400000,-6.0 -2.5,-3.7600000 -2.5,-1.0 z "
         style="fill-rule:evenodd;stroke:#000000;stroke-width:1pt;stroke-opacity:1;fill:#000000;fill-opacity:1"
         transform="scale(0.8) translate(7.4, 1)" /></marker><marker
       inkscape:stockid="DotL"
       orient="auto"
       refY="0.0"
       refX="0.0"
       id="marker1443"
       style="overflow:visible"
       inkscape:isstock="true"><path
         id="path1441"
         d="M -2.5,-1.0 C -2.5,1.7600000 -4.7400000,4.0 -7.5,4.0 C -10.260000,4.0 -12.5,1.7600000 -12.5,-1.0 C -12.5,-3.7600000 -10.260000,-6.0 -7.5,-6.0 C -4.7400000,-6.0 -2.5,-3.7600000 -2.5,-1.0 z "
         style="fill-rule:evenodd;stroke:#000000;stroke-width:1pt;stroke-opacity:1;fill:#000000;fill-opacity:1"
         transform="scale(0.8) translate(7.4, 1)" /></marker><marker
       inkscape:stockid="DotL"
       orient="auto"
       refY="0.0"
       refX="0.0"
       id="marker1433"
       style="overflow:visible"
       inkscape:isstock="true"><path
         id="path1431"
         d="M -2.5,-1.0 C -2.5,1.7600000 -4.7400000,4.0 -7.5,4.0 C -10.260000,4.0 -12.5,1.7600000 -12.5,-1.0 C -12.5,-3.7600000 -10.260000,-6.0 -7.5,-6.0 C -4.7400000,-6.0 -2.5,-3.7600000 -2.5,-1.0 z "
         style="fill-rule:evenodd;stroke:#000000;stroke-width:1pt;stroke-opacity:1;fill:#000000;fill-opacity:1"
         transform="scale(0.8) translate(7.4, 1)" /></marker><marker
       inkscape:stockid="DotL"
       orient="auto"
       refY="0.0"
       refX="0.0"
       id="marker1423"
       style="overflow:visible"
       inkscape:isstock="true"><path
         id="path1421"
         d="M -2.5,-1.0 C -2.5,1.7600000 -4.7400000,4.0 -7.5,4.0 C -10.260000,4.0 -12.5,1.7600000 -12.5,-1.0 C -12.5,-3.7600000 -10.260000,-6.0 -7.5,-6.0 C -4.7400000,-6.0 -2.5,-3.7600000 -2.5,-1.0 z "
         style="fill-rule:evenodd;stroke:#000000;stroke-width:1pt;stroke-opacity:1;fill:#000000;fill-opacity:1"
         transform="scale(0.8) translate(7.4, 1)" /></marker><marker
       inkscape:stockid="DotL"
       orient="auto"
       refY="0.0"
       refX="0.0"
       id="marker1413"
       style="overflow:visible"
       inkscape:isstock="true"><path
         id="path1411"
         d="M -2.5,-1.0 C -2.5,1.7600000 -4.7400000,4.0 -7.5,4.0 C -10.260000,4.0 -12.5,1.7600000 -12.5,-1.0 C -12.5,-3.7600000 -10.260000,-6.0 -7.5,-6.0 C -4.7400000,-6.0 -2.5,-3.7600000 -2.5,-1.0 z "
         style="fill-rule:evenodd;stroke:#000000;stroke-width:1pt;stroke-opacity:1;fill:#000000;fill-opacity:1"
         transform="scale(0.8) translate(7.4, 1)" /></marker><marker
       inkscape:stockid="DotL"
       orient="auto"
       refY="0.0"
       refX="0.0"
       id="marker1402"
       style="overflow:visible"
       inkscape:isstock="true"><path
         id="path1400"
         d="M -2.5,-1.0 C -2.5,1.7600000 -4.7400000,4.0 -7.5,4.0 C -10.260000,4.0 -12.5,1.7600000 -12.5,-1.0 C -12.5,-3.7600000 -10.260000,-6.0 -7.5,-6.0 C -4.7400000,-6.0 -2.5,-3.7600000 -2.5,-1.0 z "
         style="fill-rule:evenodd;stroke:#000000;stroke-width:1pt;stroke-opacity:1;fill:#000000;fill-opacity:1"
         transform="scale(0.8) translate(7.4, 1)" /></marker><marker
       inkscape:stockid="DotL"
       orient="auto"
       refY="0.0"
       refX="0.0"
       id="marker1392"
       style="overflow:visible"
       inkscape:isstock="true"><path
         id="path1390"
         d="M -2.5,-1.0 C -2.5,1.7600000 -4.7400000,4.0 -7.5,4.0 C -10.260000,4.0 -12.5,1.7600000 -12.5,-1.0 C -12.5,-3.7600000 -10.260000,-6.0 -7.5,-6.0 C -4.7400000,-6.0 -2.5,-3.7600000 -2.5,-1.0 z "
         style="fill-rule:evenodd;stroke:#000000;stroke-width:1pt;stroke-opacity:1;fill:#000000;fill-opacity:1"
         transform="scale(0.8) translate(7.4, 1)" /></marker><style
       id="style6"
       type="text/css"><![CDATA[
    .str5 {stroke:#00A0E3;stroke-width:70}
    .str1 {stroke:#2B2A29}
    .str7 {stroke:#E5097F}
    .str0 {stroke:#00A0E3}
    .str6 {stroke:#009846}
    .str2 {stroke:#2B2A29;stroke-width:7.62}
    .str3 {stroke:#00A0E3;stroke-width:70;stroke-linecap:square}
    .str4 {stroke:#00A0E3;stroke-width:70;stroke-linecap:square;stroke-linejoin:bevel}
    .fil0 {fill:none}
    .fil1 {fill:#00A0E3}
   ]]></style><clipPath
       id="id0"><rect
         id="rect9"
         height="37494"
         width="34165"
         y="-253"
         x="-1770" /></clipPath><clipPath
       id="id1"><rect
         id="rect12"
         height="37494"
         width="34165"
         y="-253"
         x="-3379" /></clipPath><clipPath
       id="id2"><rect
         id="rect15"
         height="37494"
         width="34165"
         y="-5500"
         x="-9711" /></clipPath></defs><g
     style="stroke-width:28.22222328;stroke-miterlimit:4;stroke-dasharray:none"
     id="BottomBorder_0"><metadata
       id="CorelCorpID_7"><odm
         name="Имя"
         value="BottomBorder"
         type="0" /></metadata><line
       class="fil0 str1"
       x1="16912"
       y1="16915"
       x2="16922"
       y2="16915"
       id="line181"
       style="fill:none;stroke:#2b2a29;stroke-width:28.22222328;stroke-miterlimit:4;stroke-dasharray:none" /><line
       class="fil0 str1"
       x1="16922"
       y1="16916"
       x2="16922"
       y2="16905"
       id="line183"
       style="fill:none;stroke:#2b2a29;stroke-width:28.22222328;stroke-miterlimit:4;stroke-dasharray:none" /></g><line
     inkscape:label="#line245"
     class="fil0 str3"
     x1="2144.8889"
     y1="1054.4438"
     x2="2455.3577"
     y2="1054.4438"
     id="symbol-minus"
     style="fill:none;stroke:#000000;stroke-width:19.75555584;stroke-linecap:square;stroke-miterlimit:4;stroke-dasharray:none;stroke-opacity:1;fill-rule:evenodd" /><g
     style="stroke:#000000;stroke-width:19.75555584;stroke-miterlimit:4;stroke-dasharray:none;stroke-opacity:1;fill-rule:evenodd;fill:none"
     transform="translate(3372.1986,-4566.1701)"
     inkscape:label="#g4434"
     id="symbol-equal"><line
       style="fill:none;stroke:#000000;stroke-width:19.75555584;stroke-linecap:square;stroke-miterlimit:4;stroke-dasharray:none;stroke-opacity:1;fill-rule:evenodd"
       id="line247"
       y2="5555.9033"
       x2="2864.9126"
       y1="5555.9033"
       x1="2554.1985"
       class="fil0 str3" /><line
       style="fill:none;stroke:#000000;stroke-width:19.75555584;stroke-linecap:square;stroke-miterlimit:4;stroke-dasharray:none;stroke-opacity:1;fill-rule:evenodd"
       id="line249"
       y2="5697.124"
       x2="2864.9126"
       y1="5697.124"
       x1="2554.1985"
       class="fil0 str3" /></g><g
     style="stroke:#000000;stroke-width:56.31503905;stroke-miterlimit:4;stroke-dasharray:none;stroke-opacity:1;fill-rule:evenodd;fill:none"
     transform="matrix(0.34898045,0,0,0.35263761,-1183.059,-2336.1668)"
     inkscape:label="#g4111"
     id="symbol-plus"><line
       style="fill:none;stroke:#000000;stroke-width:56.31503905;stroke-linecap:square;stroke-miterlimit:4;stroke-dasharray:none;stroke-opacity:1;fill-rule:evenodd"
       id="line243"
       y2="9615"
       x2="11801"
       y1="9615"
       x1="10911"
       class="fil0 str3" /><line
       style="fill:none;stroke:#000000;stroke-width:56.31503905;stroke-linecap:square;stroke-miterlimit:4;stroke-dasharray:none;stroke-opacity:1;fill-rule:evenodd"
       id="line255"
       y2="9095"
       x2="11356"
       y1="10135"
       x1="11356"
       class="fil0 str3" /></g><line
     inkscape:label="#line313"
     class="fil0 str3"
     x1="7478.8892"
     y1="772.22162"
     x2="7160.4365"
     y2="1302.3798"
     id="symbol-slash-alt"
     style="fill:none;stroke:#000000;stroke-width:19.75555584;stroke-linecap:square;stroke-miterlimit:4;stroke-dasharray:none;stroke-opacity:1;fill-rule:evenodd" /><g
     inkscape:transform-center-x="0.084114967"
     style="stroke:#000000;stroke-width:56.6985243;stroke-miterlimit:4;stroke-dasharray:none;stroke-opacity:1;fill-rule:evenodd;fill:none"
     transform="matrix(0.34843157,0,0,0.34843157,222.96682,-2933.3555)"
     inkscape:transform-center-y="-0.038505322"
     inkscape:label="#g3482"
     id="symbol-asterisk"><line
       style="fill:none;stroke:#000000;stroke-width:56.6985243;stroke-linecap:square;stroke-miterlimit:4;stroke-dasharray:none;stroke-opacity:1;fill-rule:evenodd"
       id="line331"
       y2="11445"
       x2="3491"
       y1="11445"
       x1="2600"
       class="fil0 str3" /><line
       style="fill:none;stroke:#000000;stroke-width:56.6985243;stroke-linecap:square;stroke-miterlimit:4;stroke-dasharray:none;stroke-opacity:1;fill-rule:evenodd"
       id="line333"
       y2="11059"
       x2="3268"
       y1="11831"
       x1="2823"
       class="fil0 str3" /><line
       inkscape:transform-center-y="-247.48935"
       inkscape:transform-center-x="-0.49447113"
       style="fill:none;stroke:#000000;stroke-width:56.6985243;stroke-linecap:square;stroke-miterlimit:4;stroke-dasharray:none;stroke-opacity:1;fill-rule:evenodd"
       id="line335"
       y2="11059"
       x2="2823"
       y1="11831"
       x1="3269"
       class="fil0 str3" /></g><path
     inkscape:transform-center-x="27.121586"
     inkscape:transform-center-y="-183.07931"
     inkscape:label="#path365"
     class="fil0 str3"
     d="m 4064.0001,772.22161 c 53.8742,0 97.2728,43.3982 97.2728,97.2724 0,53.5 -43.3986,97.2725 -97.2728,97.2725 -53.8743,0 -97.2728,-43.7725 -97.2728,-97.2725 0,-53.8742 43.3985,-97.2724 97.2728,-97.2724 z"
     id="symbol-degree"
     inkscape:connector-curvature="0"
     style="fill:none;stroke:#000000;stroke-width:19.75555584;stroke-linecap:square;stroke-miterlimit:4;stroke-dasharray:none;stroke-opacity:1;fill-rule:evenodd" /><g
     style="stroke:#000000;stroke-width:55.2325639;stroke-miterlimit:4;stroke-dasharray:none;stroke-opacity:1;fill-rule:evenodd;fill:none"
     transform="matrix(0.3576795,0,0,0.3576795,3993.6337,-3887.2692)"
     inkscape:label="#g3486"
     id="symbol-octothorpe"><g
       style="stroke:#000000;stroke-width:55.2325639;stroke-miterlimit:4;stroke-dasharray:none;stroke-opacity:1;fill-rule:evenodd;fill:none"
       id="_2999794988352"><line
         style="fill:none;stroke:#000000;stroke-width:55.2325639;stroke-linecap:square;stroke-miterlimit:4;stroke-dasharray:none;stroke-opacity:1;fill-rule:evenodd"
         id="line372"
         y2="14513"
         x2="6879"
         y1="13027"
         x1="7522"
         class="fil0 str3" /><line
         style="fill:none;stroke:#000000;stroke-width:55.2325639;stroke-linecap:square;stroke-miterlimit:4;stroke-dasharray:none;stroke-opacity:1;fill-rule:evenodd"
         id="line374"
         y2="14513"
         x2="7522"
         y1="13027"
         x1="8166"
         class="fil0 str3" /></g><line
       style="fill:none;stroke:#000000;stroke-width:55.2325639;stroke-linecap:square;stroke-miterlimit:4;stroke-dasharray:none;stroke-opacity:1;fill-rule:evenodd"
       id="line376"
       y2="13476"
       x2="8401"
       y1="13474"
       x1="6901"
       class="fil0 str3" /><line
       style="fill:none;stroke:#000000;stroke-width:55.2325639;stroke-linecap:square;stroke-miterlimit:4;stroke-dasharray:none;stroke-opacity:1;fill-rule:evenodd"
       id="line378"
       y2="14066"
       x2="8144"
       y1="14064"
       x1="6644"
       class="fil0 str3" /></g><path
     style="fill:none;stroke:#000000;stroke-width:19.75555584;stroke-linecap:square;stroke-miterlimit:4;stroke-dasharray:none;stroke-opacity:1;fill-rule:evenodd"
     inkscape:connector-curvature="0"
     id="symbol-period"
     d="m 4374.4445,1308.4438 c 5.8444,0 10.5484,4.7753 10.5484,10.6198 0,5.8444 -4.704,10.5484 -10.5484,10.5484 -5.8445,0 -10.6198,-4.704 -10.6198,-10.5484 0,-5.8445 4.7753,-10.6198 10.6198,-10.6198 z"
     class="fil0 str3"
     inkscape:label="#path359"
     inkscape:transform-center-y="278.29781"
     inkscape:transform-center-x="0.052310505" /><g
     inkscape:label="#g4386"
     id="symbol-colon"
     style="clip-rule:evenodd;fill-rule:evenodd;stroke:#000000;stroke-opacity:1;image-rendering:optimizeQuality;shape-rendering:geometricPrecision;text-rendering:geometricPrecision;stroke-width:19.75555584;stroke-miterlimit:4;stroke-dasharray:none;fill:none"
     transform="translate(4204.6012,-4670.6434)"><path
       style="fill:none;stroke:#000000;stroke-width:19.75555584;stroke-linecap:square;stroke-miterlimit:4;stroke-dasharray:none;stroke-opacity:1;fill-rule:evenodd"
       inkscape:connector-curvature="0"
       id="path361-8"
       d="m 1552.7322,5627.186 c 7.7688,0 14.1165,6.274 14.1165,14.0689 0,7.7949 -6.3477,14.164 -14.1165,14.164 -7.7688,0 -14.1164,-6.3691 -14.1164,-14.164 0,-7.7949 6.3476,-14.0689 14.1164,-14.0689 z"
       class="fil0 str3" /><path
       style="fill:none;stroke:#000000;stroke-width:19.75555584;stroke-linecap:square;stroke-miterlimit:4;stroke-dasharray:none;stroke-opacity:1;fill-rule:evenodd"
       inkscape:connector-curvature="0"
       id="path363-4"
       d="m 1552.7604,5796.5194 c 7.7688,0 14.1165,6.274 14.1165,14.164 0,7.7949 -6.3477,14.0689 -14.1165,14.0689 -7.7687,0 -14.1164,-6.274 -14.1164,-14.0689 0,-7.89 6.3477,-14.164 14.1164,-14.164 z"
       class="fil0 str3" /></g><path
     inkscape:label="#path4763"
     inkscape:transform-center-y="-183.3469"
     inkscape:transform-center-x="42.406766"
     inkscape:connector-curvature="0"
     id="symbol-apostrophe"
     d="m 3330.2223,772.22157 -84.6667,197.5556"
     style="fill:none;fill-rule:evenodd;stroke:#000000;stroke-width:19.75555584;stroke-linecap:butt;stroke-linejoin:miter;stroke-opacity:1;stroke-miterlimit:4;stroke-dasharray:none" /><path
     inkscape:label="#path4773"
     inkscape:transform-center-x="-14.161756"
     inkscape:connector-curvature="0"
     id="symbol-parenthesis-left"
     d="M 617.3611,777.29962 476.25,913.33272 v 272.06588 l 141.1111,136.0335"
     style="fill:none;fill-rule:evenodd;stroke:#000000;stroke-width:19.75555584;stroke-linecap:butt;stroke-linejoin:bevel;stroke-opacity:1;stroke-miterlimit:4;stroke-dasharray:none" /><path
     inkscape:transform-center-y="0.030091232"
     inkscape:transform-center-x="14.022072"
     inkscape:label="#path4806"
     inkscape:connector-curvature="0"
     id="symbol-parenthesis-right"
     d="m 765.31894,772.22192 141.1111,141.1108 V 1195.555 l -141.1111,141.111"
     style="fill:none;fill-rule:evenodd;stroke:#000000;stroke-width:19.75555584;stroke-linecap:butt;stroke-linejoin:bevel;stroke-opacity:1;stroke-miterlimit:4;stroke-dasharray:none" /><g
     style="stroke-width:19.90515237;stroke-miterlimit:4;stroke-dasharray:none;stroke:#000000;stroke-opacity:1;fill-rule:evenodd;fill:none"
     transform="matrix(1.0105554,0,0,0.97473681,210.8828,-3679.979)"
     inkscape:label="#g4815"
     id="symbol-percent"><path
       style="fill:none;stroke:#000000;stroke-width:19.90515237;stroke-linecap:square;stroke-miterlimit:4;stroke-dasharray:none;stroke-opacity:1;fill-rule:evenodd"
       inkscape:connector-curvature="0"
       id="path355"
       d="m 1495.9891,4596.3551 c 39.0563,0 70.7,31.3585 70.7,70.4151 0,39.056 -31.6437,70.6995 -70.7,70.6995 -39.0557,0 -70.4146,-31.6435 -70.4146,-70.6995 0,-39.0566 31.3589,-70.4151 70.4146,-70.4151 z"
       class="fil0 str3" /><path
       style="fill:none;stroke:#000000;stroke-width:19.90515237;stroke-linecap:square;stroke-miterlimit:4;stroke-dasharray:none;stroke-opacity:1;fill-rule:evenodd"
       inkscape:connector-curvature="0"
       id="path357"
       d="m 1664.5231,4991.94 c 38.9764,0 70.5559,31.6429 70.5559,70.6981 0,38.7708 -31.5795,70.4137 -70.5559,70.4137 -38.9763,0 -70.5558,-31.6429 -70.5558,-70.4137 0,-39.0552 31.5795,-70.6981 70.5558,-70.6981 z"
       class="fil0 str3" /><path
       style="fill:none;fill-rule:evenodd;stroke:#000000;stroke-width:19.90515237;stroke-linecap:butt;stroke-linejoin:miter;stroke-opacity:1;stroke-miterlimit:4;stroke-dasharray:none"
       d="m 1749.7779,4582.2218 -338.6667,564.4445"
       id="path4811"
       inkscape:connector-curvature="0" /></g><path
     sodipodi:nodetypes="ccc"
     inkscape:transform-center-y="338.19177"
     inkscape:transform-center-x="8.4837753"
     inkscape:label="#path4826"
     inkscape:connector-curvature="0"
     id="symbol-comma"
     d="m 4543.7778,1295.3477 0,97.7629 -42.8834,84.6667"
     style="fill:none;fill-rule:evenodd;stroke:#000000;stroke-width:19.75555584;stroke-linecap:butt;stroke-linejoin:miter;stroke-opacity:1;stroke-miterlimit:4;stroke-dasharray:none" /><path
     inkscape:label="#path4852"
     inkscape:connector-curvature="0"
     id="symbol-slash"
     d="M 874.8889,1449.555 423.3333,2183.3329"
     style="fill:none;fill-rule:evenodd;stroke:#000000;stroke-width:19.75555584;stroke-linecap:butt;stroke-linejoin:miter;stroke-opacity:1;stroke-miterlimit:4;stroke-dasharray:none" /><path
     inkscape:label="#path4854"
     inkscape:connector-curvature="0"
     id="symbol-backslash"
     d="m 3584.2223,772.22161 169.3333,564.44419"
     style="fill:none;fill-rule:evenodd;stroke:#000000;stroke-width:19.75555584;stroke-linecap:butt;stroke-linejoin:miter;stroke-opacity:1;stroke-miterlimit:4;stroke-dasharray:none" /><g
     style="stroke-width:19.75555584;stroke-miterlimit:4;stroke-dasharray:none;stroke:#000000;stroke-opacity:1;fill-rule:evenodd;fill:none"
     transform="translate(4402.6667,-4656.6667)"
     inkscape:transform-center-y="-169.379"
     inkscape:transform-center-x="0.016272384"
     inkscape:label="#g4879"
     id="symbol-quote"><path
       style="fill:none;fill-rule:evenodd;stroke:#000000;stroke-width:19.75555584;stroke-linecap:butt;stroke-linejoin:miter;stroke-opacity:1;stroke-miterlimit:4;stroke-dasharray:none"
       d="m 536.22226,5428.8883 -84.66668,225.778"
       id="path4875"
       inkscape:connector-curvature="0" /><path
       style="fill:none;fill-rule:evenodd;stroke:#000000;stroke-width:19.75555584;stroke-linecap:butt;stroke-linejoin:miter;stroke-opacity:1;stroke-miterlimit:4;stroke-dasharray:none"
       d="m 451.55558,5428.8883 -84.66667,225.778"
       id="path4877"
       inkscape:connector-curvature="0" /></g><g
     style="stroke-width:19.75555584;stroke-miterlimit:4;stroke-dasharray:none;stroke:#000000;stroke-opacity:1;fill-rule:evenodd;fill:none"
     transform="translate(4289.7778,-4656.6666)"
     inkscape:transform-center-y="0.93054461"
     inkscape:transform-center-x="0.20542867"
     inkscape:label="#g4901"
     id="symbol-question"><ellipse
       style="fill:none;stroke:#000000;stroke-width:19.75555584;stroke-miterlimit:4;stroke-dasharray:none;stroke-opacity:1;fill-rule:evenodd"
       id="circle369"
       cy="5966.6812"
       cx="1016.5838"
       class="fil1"
       rx="28.546577"
       ry="28.547459" /><path
       style="fill:none;fill-rule:evenodd;stroke:#000000;stroke-width:19.75555584;stroke-linecap:butt;stroke-linejoin:bevel;stroke-opacity:1;stroke-miterlimit:4;stroke-dasharray:none"
       d="m 874.88894,5513.5552 84.66668,-84.6669 112.88888,-10e-5 84.6667,84.667 v 112.889 L 1016,5795.7772 l 10e-5,84.667"
       id="path4897"
       inkscape:connector-curvature="0" /></g><line
     inkscape:transform-center-y="268.16043"
     inkscape:label="#line245"
     class="fil0 str3"
     x1="7761.1113"
     y1="1336.666"
     x2="8071.5801"
     y2="1336.666"
     id="symbol-underscore"
     style="clip-rule:evenodd;fill:none;fill-rule:evenodd;stroke:#000000;stroke-width:19.75555584;stroke-linecap:square;stroke-miterlimit:4;stroke-dasharray:none;stroke-opacity:1;image-rendering:optimizeQuality;shape-rendering:geometricPrecision;text-rendering:geometricPrecision" /><path
     inkscape:label="symbol-greater"
     inkscape:connector-curvature="0"
     id="symbol-greater"
     d="m 8240.8891,772.22206 225.7777,282.22204 -225.7777,282.222"
     style="fill:none;stroke:#000000;stroke-width:19.75555584;stroke-linecap:butt;stroke-linejoin:miter;stroke-opacity:1;stroke-miterlimit:4;stroke-dasharray:none;fill-rule:evenodd" /><path
     inkscape:label="symbol-less"
     inkscape:connector-curvature="0"
     id="symbol-less"
     d="m 9031.1112,772.22206 -225.7777,282.22204 225.7777,282.222"
     style="fill:none;stroke:#000000;stroke-width:19.75555584;stroke-linecap:butt;stroke-linejoin:miter;stroke-opacity:1;stroke-miterlimit:4;stroke-dasharray:none;fill-rule:evenodd" /><g
     transform="translate(-11163.369,3792.3796)"
     inkscape:label="#g1416"
     id="6-7-5"
     style="clip-rule:evenodd;fill-rule:evenodd;image-rendering:optimizeQuality;shape-rendering:geometricPrecision;text-rendering:geometricPrecision"><g
       id="g1231" /></g><path
     inkscape:label="#g4421"
     d="M 475.9626,351.13926 H 826.84584 M 473.27628,631.4227 V 156.82122 L 574.28812,62.454895 h 150.63524 l 98.35363,91.708115 V 631.4227"
     style="display:inline;fill:none;stroke:#000000;stroke-width:19.75555584;stroke-linecap:butt;stroke-linejoin:bevel;stroke-miterlimit:4;stroke-dasharray:none;stroke-dashoffset:0;stroke-opacity:1;fill-rule:evenodd"
     id="A" /><path
     inkscape:label="#g1051"
     d="m 2031.4917,629.50986 -269.3667,1.77568 V 74.385995 h 269.3667 l 81.5165,83.733495 v 368.60285 z"
     style="display:inline;fill:none;stroke:#000000;stroke-width:19.75555584;stroke-linecap:butt;stroke-linejoin:bevel;stroke-miterlimit:4;stroke-dasharray:none;stroke-dashoffset:0;stroke-opacity:1;fill-rule:evenodd"
     id="D" /><path
     d="m 915.97499,354.41636 h 264.04971 m 94.8079,-200.25332 -89.4912,-87.279542 H 915.97466 V 635.8513 h 269.36674 l 89.4912,-97.13618 V 430.6165 l -96.5833,-77.97582 96.5833,-93.92506 z"
     style="display:inline;fill:none;stroke:#000000;stroke-width:19.75555584;stroke-linecap:butt;stroke-linejoin:bevel;stroke-miterlimit:4;stroke-dasharray:none;stroke-dashoffset:0;stroke-opacity:1;fill-rule:evenodd"
     id="B" /><path
     inkscape:label="#g1016"
     d="m 1666.0694,164.2625 -87.1147,-96.142005 h -174.5538 l -90.8203,97.471115 v 363.733 l 91.4848,107.76369 H 1570.98 l 95.0894,-108.98646"
     style="display:inline;fill:none;stroke:#000000;stroke-width:19.75555584;stroke-linecap:butt;stroke-linejoin:bevel;stroke-miterlimit:4;stroke-dasharray:none;stroke-dashoffset:0;stroke-opacity:1;fill-rule:evenodd"
     id="C" /><path
     inkscape:label="#g1086"
     d="m 3394.0897,174.50219 -96.6919,-99.669525 h -165.5684 l -98.6788,99.669525 v 353.9879 l 106.2975,107.28832 h 167.2215 l 87.5843,-88.58042 V 425.17541 h -84.9352"
     style="display:inline;fill:none;stroke:#000000;stroke-width:19.75555584;stroke-linecap:butt;stroke-linejoin:bevel;stroke-miterlimit:4;stroke-dasharray:none;stroke-dashoffset:0;stroke-opacity:1;fill-rule:evenodd"
     id="G" /><path
     inkscape:label="#g4551"
     sodipodi:nodetypes="cccccc"
     id="K"
     style="display:inline;fill:none;stroke:#000000;stroke-width:19.75555584;stroke-linecap:butt;stroke-linejoin:bevel;stroke-miterlimit:4;stroke-dasharray:none;stroke-dashoffset:0;stroke-opacity:1;fill-rule:evenodd"
     d="m 4614.3334,366.88892 251.6577,267.87631 m 1.3242,-560.945752 -340.8681,381.246682 m 0,-379.482792 V 636.52912" /><path
     inkscape:label="#g1107"
     sodipodi:nodetypes="ccccccc"
     id="J"
     style="display:inline;fill:none;stroke:#000000;stroke-width:19.75555584;stroke-linecap:butt;stroke-linejoin:bevel;stroke-miterlimit:4;stroke-dasharray:none;stroke-dashoffset:0;stroke-opacity:1;fill-rule:evenodd"
     d="m 4291.4176,68.427678 h 196.033 m -95.3671,0 V 543.27781 l -82.1225,86.09557 -64.5156,1.76389 -82.1214,-86.09557" /><path
     inkscape:label="#g4516"
     sodipodi:nodetypes="cccccc"
     id="I"
     style="display:inline;fill:none;stroke:#000000;stroke-width:19.75555584;stroke-linecap:butt;stroke-linejoin:bevel;stroke-miterlimit:4;stroke-dasharray:none;stroke-dashoffset:0;stroke-opacity:1;fill-rule:evenodd"
     d="m 3930.1516,634.76523 178.3941,-1.76389 M 4022.011,73.819478 V 634.76523 m -91.8594,-560.945752 178.3941,-1.76389" /><path
     inkscape:label="#g4477"
     id="E"
     style="display:inline;fill:none;stroke:#000000;stroke-width:19.75555584;stroke-linecap:butt;stroke-linejoin:bevel;stroke-miterlimit:4;stroke-dasharray:none;stroke-dashoffset:0;stroke-opacity:1;fill-rule:evenodd"
     d="m 2187.2223,353.09389 h 251.664 M 2534.2534,71.627588 H 2184.573 V 632.57329 h 333.7854" /><path
     inkscape:label="#g4499"
     sodipodi:nodetypes="cccccc"
     d="m 3513.6668,361.59725 341.7725,-1.76389 M 3513.6668,74.832758 V 635.77852 M 3855.4391,73.068928 V 634.01465"
     style="display:inline;fill:none;stroke:#000000;stroke-width:19.75555584;stroke-linecap:butt;stroke-linejoin:bevel;stroke-miterlimit:4;stroke-dasharray:none;stroke-dashoffset:0;stroke-opacity:1;fill-rule:evenodd"
     id="H" /><path
     inkscape:label="#g4487"
     id="F"
     style="display:inline;fill:none;stroke:#000000;stroke-width:19.75555584;stroke-linecap:butt;stroke-linejoin:bevel;stroke-miterlimit:4;stroke-dasharray:none;stroke-dashoffset:0;stroke-opacity:1;fill-rule:evenodd"
     d="m 2610.6423,354.86105 h 251.6641 M 2613.2917,631.69134 V 70.745648 h 347.0311" /><path
     inkscape:label="#path4556"
     d="M 4980.5987,70.571387 V 637.26228 h 358.4251"
     style="display:inline;fill:none;stroke:#000000;stroke-width:19.75555584;stroke-linecap:butt;stroke-linejoin:bevel;stroke-miterlimit:4;stroke-dasharray:none;stroke-opacity:1;fill-rule:evenodd"
     id="L" /><path
     inkscape:label="#path4560"
     sodipodi:nodetypes="ccccc"
     d="M 5403.3689,646.52268 V 93.308383 L 5589.219,346.6684 5771.4445,95.438063 l 4.952,551.084617"
     style="display:inline;fill:none;stroke:#000000;stroke-width:19.75555584;stroke-linecap:square;stroke-linejoin:bevel;stroke-miterlimit:4;stroke-dasharray:none;stroke-opacity:1;fill-rule:evenodd"
     id="M" /><path
     inkscape:label="#path4562"
     sodipodi:nodetypes="cccc"
     d="M 5858.9518,642.99488 V 95.171222 l 335.826,546.297458 V 91.932526"
     style="display:inline;opacity:1;fill:none;stroke:#000000;stroke-width:19.75555584;stroke-linecap:butt;stroke-linejoin:bevel;stroke-miterlimit:4;stroke-dasharray:none;stroke-opacity:1;fill-rule:evenodd"
     id="N" /><path
     inkscape:label="#g1110"
     sodipodi:nodetypes="ccccccccc"
     d="m 6420.487,644.02818 126.4701,1.24723 96.2438,-105.45706 V 178.31133 L 6549.9466,78.244908 6397.9195,76.997676 6312.9594,177.0641 v 361.50701 z"
     style="display:inline;fill:none;stroke:#000000;stroke-width:19.75555584;stroke-linejoin:bevel;stroke-miterlimit:4;stroke-dasharray:none;stroke-opacity:1;fill-rule:evenodd"
     id="O" /><path
     inkscape:label="#g1159"
     d="M 6756.3509,639.19478 V 80.589845 h 249.5702 l 86.2875,91.640855 v 86.25022 l -78.9863,80.18575 h -254.2164"
     style="display:inline;fill:none;stroke:#000000;stroke-width:19.75555584;stroke-linecap:butt;stroke-linejoin:bevel;stroke-miterlimit:4;stroke-dasharray:none;stroke-opacity:1;fill-rule:evenodd"
     id="P" /><path
     inkscape:label="#g1192"
     sodipodi:nodetypes="ccccccccccc"
     id="Q"
     style="display:inline;fill:none;stroke:#000000;stroke-width:19.75555584;stroke-linejoin:bevel;stroke-miterlimit:4;stroke-dasharray:none;stroke-opacity:1;fill-rule:evenodd"
     d="m 7382.4738,506.41647 82.3041,86.25023 m 51.5844,-415.20408 -93.2541,-100.066422 h -148.2856 l -84.9605,100.066422 v 361.507 l 107.5276,105.45712 h 122.7285 l 96.2441,-105.45712 z" /><path
     inkscape:label="#g1213"
     sodipodi:nodetypes="ccccccccc"
     id="R"
     style="display:inline;fill:none;stroke:#000000;stroke-width:19.75555584;stroke-linecap:butt;stroke-linejoin:bevel;stroke-miterlimit:4;stroke-dasharray:none;stroke-opacity:1;fill-rule:evenodd"
     d="M 8001.0002,620.88892 7773.5857,338.09294 m -108.855,302.54952 V 82.037558 h 249.57 l 86.288,91.640832 v 86.25024 l -78.9871,80.18573 h -254.2158" /><path
     inkscape:label="#path4643"
     sodipodi:nodetypes="ccccc"
     d="M 9854.1441,82.823372 9852.8968,632.73002 10033,366.88889 l 177.609,265.84113 3.742,-544.846073"
     style="display:inline;fill:none;stroke:#000000;stroke-width:19.75555584;stroke-linejoin:bevel;stroke-miterlimit:4;stroke-dasharray:none;stroke-opacity:1;fill-rule:evenodd"
     id="W" /><path
     inkscape:label="#path4641"
     sodipodi:nodetypes="ccccc"
     d="m 9413.9155,88.885467 2.4946,272.004513 167.529,267.48251 166.8388,-261.48357 V 84.666673"
     style="display:inline;fill:none;stroke:#000000;stroke-width:19.75555584;stroke-linejoin:bevel;stroke-miterlimit:4;stroke-dasharray:none;stroke-opacity:1;fill-rule:evenodd"
     id="V" /><path
     inkscape:label="#g1299"
     sodipodi:nodetypes="cccccc"
     d="m 8954.4306,87.959796 1.2472,447.501554 98.192,98.19198 h 157.8142 l 96.4455,-96.44024 -1.2473,-449.253294"
     style="display:inline;fill:none;stroke:#000000;stroke-width:19.75555584;stroke-linejoin:bevel;stroke-miterlimit:4;stroke-dasharray:none;stroke-opacity:1;fill-rule:evenodd"
     id="U" /><path
     inkscape:label="#g4621"
     sodipodi:nodetypes="cccc"
     id="T"
     style="display:inline;fill:none;stroke:#000000;stroke-width:19.75555584;stroke-linejoin:bevel;stroke-miterlimit:4;stroke-dasharray:none;stroke-opacity:1;fill-rule:evenodd"
     d="M 8705.4492,647.91616 V 95.133688 m -171.839,3.50867 h 343.6824" /><polyline
     inkscape:label="#g1280"
     transform="matrix(5.2604725,0,0,5.2604725,8090.1991,-3734.2927)"
     style="display:inline;fill:none;stroke:#000000;stroke-width:3.75547175;stroke-linejoin:bevel;stroke-miterlimit:4;stroke-dasharray:none;stroke-opacity:1;fill-rule:evenodd"
     points="64.5,741.385 48.5,727.385 17.167,728.052 0.5,745.385 0.5,764.719 14.5,778.719     49.833,778.719 66.5,795.385 66.5,816.052 51.5,831.052 20.5,831.052 2.667,813.219   "
     id="S" /><path
     inkscape:label="#g4649"
     sodipodi:nodetypes="cccc"
     id="X"
     style="display:inline;fill:none;stroke:#000000;stroke-width:19.75555584;stroke-linejoin:bevel;stroke-miterlimit:4;stroke-dasharray:none;stroke-opacity:1;fill-rule:evenodd"
     d="m 10310.699,97.921828 314.968,535.948622 m 4.856,-539.928582 -322.479,541.485552" /><path
     inkscape:label="#g4659"
     sodipodi:nodetypes="ccccc"
     id="Y"
     style="display:inline;fill:none;stroke:#000000;stroke-width:19.75555584;stroke-linejoin:bevel;stroke-miterlimit:4;stroke-dasharray:none;stroke-opacity:1;fill-rule:evenodd"
     d="M 10869.017,634.21043 V 365.92631 m -186.905,-281.259612 185.589,279.944452 153.708,-270.898012" /><path
     inkscape:label="#path4663"
     sodipodi:nodetypes="cccc"
     d="m 11134.454,95.793084 h 343.357 l -344.144,542.366766 338.887,-0.88193"
     style="display:inline;fill:none;stroke:#000000;stroke-width:19.75555584;stroke-linejoin:bevel;stroke-miterlimit:4;stroke-dasharray:none;stroke-opacity:1;fill-rule:evenodd"
     id="Z" /><polyline
     inkscape:label="#path4735"
     transform="matrix(5.3293541,0,0,5.3293541,9326.3212,-687.8096)"
     style="display:inline;fill:none;stroke:#000000;stroke-width:3.82175;stroke-linejoin:bevel;stroke-miterlimit:4;stroke-dasharray:none;stroke-opacity:1;fill-rule:evenodd"
     points="879.167,146.718 943.167,146.718 878.166,248.718   "
     id="7" /><polyline
     inkscape:label="#g1416"
     transform="matrix(5.3293541,0,0,5.3293541,9642.0573,-689.5735)"
     style="display:inline;fill:none;stroke:#000000;stroke-width:3.82175;stroke-linejoin:bevel;stroke-miterlimit:4;stroke-dasharray:none;stroke-opacity:1;fill-rule:evenodd"
     points="802.5,163.385 782.5,146.718 754.5,146.718 734.084,162.718 734.084,231.718     750.5,248.718 787.833,248.718 802.5,231.718 802.5,212.052 785.834,196.718 752.5,196.718 734.084,215.385   "
     id="6" /><path
     inkscape:label="#g1408"
     sodipodi:nodetypes="cccccccccc"
     d="m 13122.179,547.08688 85.264,92.3737 h 197.192 l 88.824,-95.92838 -3.555,-181.19804 -92.373,-81.71498 -170.54,3.55468 -101.258,81.71498 V 95.86646 l 320.101,5.29168"
     style="display:inline;fill:none;stroke:#000000;stroke-width:20.3675;stroke-linejoin:bevel;stroke-miterlimit:4;stroke-dasharray:none;stroke-opacity:1;fill-rule:evenodd"
     id="5" /><path
     inkscape:label="#g4745"
     sodipodi:nodetypes="cccc"
     d="m 12967.658,401.16662 -305.704,-1.76389 223.637,-304.569529 14.208,543.594159"
     style="display:inline;fill:none;stroke:#000000;stroke-width:20.3675;stroke-linejoin:bevel;stroke-miterlimit:4;stroke-dasharray:none;stroke-opacity:1;fill-rule:evenodd"
     id="4" /><path
     inkscape:label="#g1358"
     sodipodi:nodetypes="ccccccccccccc"
     id="3"
     style="display:inline;fill:none;stroke:#000000;stroke-width:20.3675;stroke-linejoin:bevel;stroke-miterlimit:4;stroke-dasharray:none;stroke-opacity:1;fill-rule:evenodd"
     d="m 12238.037,547.59904 95.929,88.8192 h 177.643 l 75.502,-87.0444 V 435.72047 l -82.605,-74.61112 h -95.929 m -150.997,-183.98819 85.27,-83.489695 h 161.531 l 82.73,71.094095 v 112.88889 l -82.605,83.4949" /><path
     inkscape:label="#g1335"
     sodipodi:nodetypes="ccccccc"
     d="m 11796.889,184.44191 96.984,-88.824345 h 144.812 l 88.824,70.171605 V 266.1569 l -295.331,369.52704 293.74,-1.7639"
     style="display:inline;fill:none;stroke:#000000;stroke-width:20.3675;stroke-linejoin:bevel;stroke-miterlimit:4;stroke-dasharray:none;stroke-opacity:1;fill-rule:evenodd"
     id="2" /><path
     inkscape:label="#g4679"
     id="1"
     style="display:inline;fill:none;stroke:#000000;stroke-width:19.7556;stroke-linejoin:bevel;stroke-miterlimit:4;stroke-dasharray:none;stroke-opacity:1;fill-rule:evenodd"
     d="m 11567.556,635.44574 h 202.515 m -198.96,-465.42851 85.27,-78.165715 10.658,543.594225" /><path
     style="display:inline;fill:none;stroke:#000000;stroke-width:20.3675;stroke-linejoin:bevel;stroke-miterlimit:4;stroke-dasharray:none;stroke-opacity:1;fill-rule:evenodd"
     inkscape:connector-curvature="0"
     d="M 11454.604,992.07884"
     id="path36-1" /><path
     style="display:inline;fill:none;stroke:#000000;stroke-width:20.3675;stroke-linejoin:bevel;stroke-miterlimit:4;stroke-dasharray:none;stroke-opacity:1;fill-rule:evenodd"
     inkscape:connector-curvature="0"
     d="M 11454.604,1272.7598"
     id="path40-6" /><path
     inkscape:label="#g1806"
     d="m 14761.618,634.30774 83.271,-69.8358 v -107.9194 l -82.386,-90.15143 -184.748,-1.78 -92.379,89.71443 v 98.593 l 91.489,81.3792 z m 0,-269.68663 83.271,-81.71499 V 179.86839 l -88.6,-87.044335 h -186.528 l -84.385,86.159665 v 93.26369 l 91.489,92.3737 z"
     style="display:inline;fill:none;stroke:#000000;stroke-width:20.3675;stroke-linejoin:bevel;stroke-miterlimit:4;stroke-dasharray:none;stroke-opacity:1;fill-rule:evenodd"
     id="8" /><path
     inkscape:label="#g1416"
     sodipodi:nodetypes="cccccccccccccc"
     id="9"
     style="display:inline;fill:none;stroke:#000000;stroke-width:20.3675;stroke-linejoin:bevel;stroke-miterlimit:4;stroke-dasharray:none;stroke-opacity:1;fill-rule:evenodd"
     d="m 14954.784,554.20724 104.813,88.4886 h 154.551 l 82.297,-84.8856 V 282.90612 m -87.487,-190.524295 h -186.527 l -86.16,86.601995 0.891,103.9223 81.714,86.60201 h 184.753 l 92.816,-86.60201 v -103.9223 z" /><path
     inkscape:label="#g1417"
     d="M 15738.844,536.90614 V 190.09231 l -93.599,-98.928795 h -178.864 l -85.269,98.928795 v 346.81383 l 107.919,104.2581 h 153.219 z"
     style="display:inline;fill:none;stroke:#000000;stroke-width:19.7556;stroke-miterlimit:4;stroke-dasharray:none;stroke-opacity:1;fill-rule:evenodd"
     id="0"
     sodipodi:nodetypes="ccccccccc" /></svg>
